<svg width="151" height="94" viewBox="0 0 151 94" fill="none" xmlns="http://www.w3.org/2000/svg">
<path d="M13.7788 14.4972C16.139 14.4032 21.8951 14.2137 24.8215 13.5496C24.7263 14.7822 24.5376 18.5726 24.5376 25.7742V28.9959C27.1801 26.8157 29.3515 25.6787 31.994 25.6787C35.2027 25.6787 37.3726 27.1008 38.789 29.1855C40.0151 31.1761 40.6765 33.9234 40.6765 36.8616C40.6765 45.6734 36.524 50.6963 28.1238 50.6963C25.8588 50.6963 23.1212 49.9382 21.5176 49.0847C20.3851 49.4637 18.8751 50.2217 17.3651 50.6963L16.8925 50.4113C16.9876 47.852 16.9876 43.0201 16.9876 36.4811V24.352C16.9876 21.3198 16.8925 19.2351 16.7988 17.4355C16.7037 16.2028 16.4213 16.0133 13.5901 16.0133L13.7788 14.4972ZM28.1238 48.8951C31.3326 48.8951 32.8426 45.0093 32.8426 37.8077C32.8426 34.8709 32.37 32.4072 31.5213 30.7956C30.7663 29.5645 29.8226 28.9004 28.5013 28.9004C27.085 28.9004 25.8588 29.754 25.0087 30.9851C24.5376 31.6492 24.3488 32.2177 24.3488 39.7028C24.3488 45.8629 24.6327 46.0524 25.0102 46.8105C25.6701 48.2326 26.8977 48.8951 28.1238 48.8951ZM57.1913 50.1277C55.2087 50.1277 53.2276 49.9367 50.1125 49.9367C46.8101 49.9367 45.205 50.1277 43.6013 50.1277V48.5161C46.2438 48.4206 46.6213 47.9476 46.7165 46.9045C46.8101 45.7674 46.9052 43.9677 46.9052 41.0295V34.9649C46.9052 32.5012 46.9052 30.5121 46.8101 29.6585C46.715 28.8064 46.3375 28.5214 43.8837 28.6169V27.0053C47.1876 26.7217 51.1513 26.6262 54.3601 25.9637C54.265 27.1963 54.1713 29.4705 54.1713 34.6814V41.2205C54.1713 44.2527 54.2665 45.5794 54.3601 46.906C54.4552 48.2326 54.8327 48.4221 57.1913 48.7056V50.1277ZM50.1125 14.9718C52.5677 14.9718 53.9826 16.3939 53.9826 18.9516C53.9826 21.1318 52.3775 22.6479 49.9237 22.6479C47.7538 22.6479 46.2438 21.1318 46.2438 18.9516C46.2438 16.6774 47.7538 14.9718 50.114 14.9718H50.1125ZM59.6451 14.4972C63.3265 14.4032 67.6677 14.0242 69.9327 13.5496C69.8051 17.465 69.7417 21.3822 69.7425 25.2996V37.1451C71.5363 36.6706 75.405 31.9327 76.915 29.1855C77.1988 28.6169 77.1988 28.3319 76.4438 28.3319L74.3676 28.1424V26.5322C77.8602 26.6277 81.4465 26.4367 85.0327 26.2472V27.8588C82.3902 28.1439 81.3513 28.3334 80.3125 29.1855C78.8976 30.4181 77.2925 32.1237 75.7825 33.9234C76.915 36.2931 81.6352 45.0108 83.4276 47.379C83.9938 48.2326 84.844 48.5161 85.7877 48.5161L87.1075 48.6116L87.0138 50.2217C82.4838 50.2217 78.6137 50.4113 76.5375 50.7903C75.405 48.1371 72.0075 41.6935 70.9701 39.7028C70.4038 38.6613 70.12 38.2822 69.7425 38.3762C69.7425 42.2621 69.6488 44.1572 69.8376 46.9045C69.9327 48.1371 70.2151 48.5161 72.764 48.6101V50.2217C70.9701 50.2217 69.0826 50.0322 65.969 50.0322C62.2876 50.0322 60.684 50.2217 59.2676 50.2217V48.6101C61.7213 48.5161 62.0988 48.0431 62.194 47.094C62.2876 45.9569 62.3812 43.4932 62.3812 38.5657V26.3427C62.3812 22.4569 62.3812 19.5201 62.2876 17.0564C62.2876 16.4879 61.9101 16.2028 61.1551 16.2028H59.55L59.6451 14.4972ZM36.9015 73.5322C35.2963 78.6492 32.1827 81.1129 26.9913 81.1129C22.555 81.1129 19.7237 79.8803 17.7426 77.227C16.2326 75.2379 15.4776 72.2996 15.4776 68.9838C15.4776 61.6867 19.914 56.0967 28.0302 56.0967C32.9377 56.0967 36.524 58.3709 36.524 62.0673C36.524 64.625 34.4477 65.6666 32.749 65.6666C32.1827 65.6666 31.3326 65.4786 30.8615 65.1935C30.2952 64.8145 30.0113 64.2459 30.2001 63.4879C30.2952 62.7298 30.484 62.2553 30.484 61.4972C30.484 59.129 29.6338 57.9919 27.8415 57.9919C24.9151 57.9919 23.4051 62.2568 23.4051 68.1318C23.4051 70.5 23.689 73.1532 24.5376 74.7633C25.4813 76.9435 26.9913 78.1746 29.2563 78.1746C32.0876 78.1746 33.8815 76.5645 35.2027 72.8682L36.9015 73.5322ZM42.2801 66.6157C42.2801 63.5834 42.185 61.2137 41.9962 59.9811C41.9026 59.3185 41.5251 59.035 40.8637 59.035H39.165V57.4234C41.9962 57.3278 45.8663 57.1383 48.6025 56.2863L48.8863 56.4758C49.0751 57.6129 49.2638 60.3616 49.359 62.0673H49.5462C50.7753 58.75 52.4726 56.0967 55.9652 56.0967C57.9478 56.0967 59.4578 57.7084 59.4578 59.8871C59.4578 63.0148 57.0977 63.9624 56.154 63.9624C55.2117 63.9624 54.5503 63.6774 54.2665 63.0133C53.7953 61.9717 53.5115 61.4032 52.5692 61.4032C51.5303 61.4032 50.9641 62.3508 50.3042 63.8669C50.0203 64.7205 49.8316 65.6681 49.8316 67.2782C49.8316 72.6802 49.8316 75.7124 49.9267 77.039C50.0203 78.3641 50.4915 78.7432 54.2665 78.8387L54.1728 80.4503C51.5303 80.3548 49.1702 80.2593 46.4341 80.2593C43.6028 80.2593 41.5266 80.3548 39.1665 80.4503L39.4488 78.8387C41.7138 78.7432 42.2801 78.4596 42.2801 77.5121C42.3752 76.1855 42.4688 73.6262 42.4688 70.6895V66.6141H42.2801V66.6157ZM74.274 62.2568C74.274 59.4125 73.3287 57.8964 71.4412 57.8964C69.2713 57.8964 68.234 59.129 68.234 61.4032C68.234 62.0673 68.3276 62.6358 68.4212 63.2044C68.5163 63.7714 68.3276 64.3415 67.8565 64.625C67.1951 65.0995 66.0626 65.4785 65.214 65.4785C63.4201 65.4785 61.9101 64.6235 61.9101 62.5403C61.9101 59.508 66.3465 56.0967 72.5752 56.0967C77.67 56.0967 79.935 58.1814 80.7851 59.508C81.2577 60.2661 81.5401 61.1197 81.5401 62.0673V75.9959C81.5401 77.6076 82.0127 77.9866 82.579 77.9866C83.334 77.9866 84.1826 76.754 84.5601 74.6693L86.1652 75.4274C85.3151 79.5027 82.8613 81.2084 79.4638 81.2084C76.5375 81.2084 74.9338 79.9758 74.4612 77.5121C72.1962 79.7863 69.8376 81.2084 67.3838 81.2084C63.4201 81.2084 60.7776 78.5552 60.7776 74.1948C60.7776 71.5416 61.9101 70.0254 63.8927 69.1734C67.1 67.7512 71.9138 66.3306 74.2725 64.625V62.2553L74.274 62.2568ZM68.3276 72.7742C68.3276 74.8588 69.1777 77.133 71.254 77.133C72.764 77.133 73.4238 76.1855 73.8965 75.2379C74.0837 74.7633 74.1788 73.9113 74.1788 72.9637V66.5201C73.14 67.1842 71.5363 67.9423 70.3087 68.7003C69.1762 69.4584 68.3276 70.4045 68.3276 72.7742ZM87.0138 56.9503L90.0338 57.0443V55.5282C90.129 51.5484 91.0727 48.6101 93.149 46.5254C95.0365 44.6303 97.3015 43.6827 100.038 43.6827C103.908 43.6827 105.984 45.5778 105.984 48.0416C105.984 49.8427 104.474 51.0738 102.396 51.0738C101.264 51.0738 100.509 50.3157 100.509 49.1786C100.509 47.1895 100.226 45.5794 98.8115 45.5794C97.8662 45.5794 97.3015 46.4314 97.1112 48.0431C96.924 49.5592 97.2063 52.4019 97.3951 56.8548H102.02L101.736 58.75L97.3951 59.035C97.2999 60.8346 97.2999 63.9624 97.2999 67.6572C97.2999 71.164 97.2999 74.2903 97.3951 76.754C97.4902 77.9866 97.679 78.4596 98.7163 78.5552C99.6601 78.6492 100.415 78.7432 101.265 78.7432L101.073 80.3548C99.2811 80.3548 96.4498 80.1653 93.9961 80.1653C91.4472 80.1653 88.4272 80.3548 86.7284 80.3548L86.8236 78.7432C89.2773 78.6492 89.6548 78.3641 89.75 77.3226C89.9372 75.7109 89.9372 73.2472 89.9372 69.9314V58.9395L86.7299 58.75L87.0123 56.9488L87.0138 56.9503Z" fill="#FEC63E"/>
<path d="M119.385 56.9503L119.195 58.75L113.439 59.129C113.439 61.1197 113.344 64.0564 113.344 68.0363C113.344 72.2056 113.344 75.0484 113.534 76.754C113.628 77.9866 114.099 78.5552 115.044 78.5552C117.025 78.5552 118.251 76.375 118.724 74.3858H119.479L120.14 76.5645C119.008 79.3132 116.175 81.2084 112.022 81.2084C109.757 81.2084 107.776 80.4503 106.833 79.3132C106.171 78.4597 105.889 77.4181 105.889 75.9019C105.889 72.0161 106.078 63.2984 106.078 59.129L103.058 58.844L103.246 57.0443H106.078C106.173 55.2432 106.173 53.1585 106.173 51.2633C109.475 50.4113 111.927 49.3697 113.25 48.5161L113.816 48.6116C113.651 51.4197 113.557 54.2315 113.532 57.0443H119.385V56.9488V56.9503Z" fill="#FEC63E"/>
<path d="M143.45 7.58065V86.4194H7.55V7.58065H143.45ZM151 0H0V94H151V0Z" fill="#FEC63E"/>
</svg>
